<?xml version="1.0" encoding="UTF-8"?>
<?xml-stylesheet type="text/css" href="XPStar.css"?>
<svg id="XPStar7" data-name="XP Star 7" xmlns="http://www.w3.org/2000/svg" viewBox="0 0 257.57 297.42">
  <link xmlns="http://www.w3.org/1999/xhtml" rel="stylesheet" href="XPStar.css" type="text/css"/>
  <path class="xpstar" d="m128.79,30.21h0c9.44,46.58,57.56,74.37,102.62,59.25h0s0,0,0,0c-35.62,31.47-35.62,87.03,0,118.5h0s0,0,0,0c-45.06-15.12-93.18,12.67-102.62,59.25h0s0,0,0,0c-9.44-46.58-57.56-74.37-102.62-59.25h0s0,0,0,0c35.62-31.47,35.62-87.03,0-118.5h0s0,0,0,0c45.06,15.12,93.18-12.67,102.62-59.25h0Z"/>
</svg>