<?xml version="1.0" encoding="utf-8"?>
<!-- Generator: Adobe Illustrator 27.9.0, SVG Export Plug-In . SVG Version: 6.00 Build 0)  -->
<svg version="1.1" id="Layer_2_00000159462671647252994330000017671968300912929707_"
	 xmlns="http://www.w3.org/2000/svg" xmlns:xlink="http://www.w3.org/1999/xlink" x="0px" y="0px" viewBox="0 0 610 470"
	 style="enable-background:new 0 0 610 470;" xml:space="preserve">
<style type="text/css">
	.st0{fill:none;stroke:#000000;stroke-width:16;stroke-miterlimit:10;}
	.st1{fill:none;stroke:#000000;stroke-width:15;stroke-miterlimit:10;}
	.st2{fill:none;stroke:#000000;stroke-width:30;stroke-miterlimit:10;}
</style>
<ellipse class="st0" cx="302.2" cy="177.3" rx="46.2" ry="46.2"/>
<path class="st1" d="M293.8,270.5c0,0,101,0,101-96.9c0-91-101-91-101-91"/>
<path class="st1" d="M293.8,313c0,0,145.2,0,145.2-139.2C439,43,293.8,43,293.8,43"/>
<path class="st2" d="M42,348h230c1.3,11.6,1.4,30.5-9,51c-21.6,42.7-71.6,59.2-88.5,63.8c-0.7,0.2-0.6,1.2,0.2,1.3
	c21.8,0.3,74.9-1.9,126.3-32.2c50.6-29.8,69.9-69.4,76-83.8h191c19.9,0,36-16.1,36-36V42c0-19.9-16.1-36-36-36H42
	C22.1,6,6,22.1,6,42v270C6,331.9,22.1,348,42,348z"/>
</svg>
