<?xml version="1.0" encoding="UTF-8"?>
<svg id="Layer_2" data-name="Layer 2" xmlns="http://www.w3.org/2000/svg" viewBox="0 0 272.81 272.81">
  <defs>
    <style>
      .cls-1 {
        fill: none;
        stroke: #000;
        stroke-miterlimit: 10;
        stroke-width: 12px;
      }
    </style>
  </defs>
  <path class="cls-1" d="m136.41,17.91l.03.1c12.11,34.06,51.02,50.18,83.67,34.66l.09-.04-.04.09c-15.52,32.65.6,71.55,34.66,83.67l.1.03-.1.03c-34.06,12.11-50.18,51.02-34.66,83.67l.04.09-.09-.04c-32.65-15.52-71.55.6-83.67,34.66l-.03.1-.03-.1c-12.11-34.06-51.02-50.18-83.67-34.66l-.09.04.04-.09c15.52-32.65-.6-71.55-34.66-83.67l-.1-.03.1-.03c34.06-12.11,50.18-51.02,34.66-83.67l-.04-.09.09.04c32.65,15.52,71.55-.6,83.67-34.66l.03-.1Z"/>
</svg>